<svg xmlns="http://www.w3.org/2000/svg" width="18" height="18" viewBox="0 0 18 18">
    <path fill="#C8CCD1" fill-rule="nonzero" d="M9 0C4.038 0 0 4.038 0 9s4.038 9 9 9 9-4.038 9-9-4.038-9-9-9zm0 1.5c1.9 0 3.625.715 4.945 1.875-.141.196-.33.434-.633.727-.641.62-1.667 1.368-3.234 1.945a35.67 35.67 0 0 0-2.789-4.36A7.585 7.585 0 0 1 9 1.5zm-3.188.703c.615.805 1.71 2.299 2.813 4.29-3.05.81-5.847.911-6.96.913a7.479 7.479 0 0 1 4.147-5.203zm9.165 2.274A7.477 7.477 0 0 1 16.5 8.812c-.669-.148-1.653-.297-2.93-.304a18.186 18.186 0 0 0-2.226.14c-.187-.428-.39-.84-.586-1.242 1.682-.644 2.828-1.493 3.586-2.226.259-.25.459-.484.633-.703zM9.305 7.852c.173.349.348.707.515 1.078-3.204.887-5.508 3.607-6.492 4.968A7.473 7.473 0 0 1 1.5 9v-.094c1.013.01 4.237-.058 7.805-1.054zm4.265 2.132c1.34-.001 2.266.189 2.813.329a7.456 7.456 0 0 1-3.07 4.828c-.3-1.794-.79-3.498-1.383-5.063.59-.058 1.151-.093 1.64-.094zm-3.164.352c.673 1.712 1.239 3.589 1.524 5.578A7.531 7.531 0 0 1 9 16.5a7.49 7.49 0 0 1-4.57-1.547c.77-1.055 3.036-3.862 5.976-4.617z"/>
</svg>
