<?xml version="1.0" encoding="UTF-8" standalone="no"?><!DOCTYPE svg PUBLIC "-//W3C//DTD SVG 1.1//EN" "http://www.w3.org/Graphics/SVG/1.1/DTD/svg11.dtd"><svg width="100%" height="100%" viewBox="0 0 16 16" version="1.1" xmlns="http://www.w3.org/2000/svg" xmlns:xlink="http://www.w3.org/1999/xlink" xml:space="preserve" style="fill-rule:evenodd;clip-rule:evenodd;stroke-linejoin:round;stroke-miterlimit:1.41421;"><path d="M14.533,0l-13.066,0c-0.8,0 -1.467,0.667 -1.467,1.467l0,13.066c0,0.8 0.667,1.467 1.467,1.467l6.533,0l0,-6.667l-2,0l0,-2l2,0l0,-2c0,-1.666 0.667,-2.666 2.667,-2.666l2,0l0,2l-0.867,0c-0.6,0 -1.133,0.533 -1.133,1.133l0,1.533l2.666,0l-0.333,2l-2.333,0l0,6.667l3.866,0c0.8,0 1.467,-0.667 1.467,-1.467l0,-13.066c0,-0.8 -0.667,-1.467 -1.467,-1.467Z" style="fill:#fff;fill-rule:nonzero;"/></svg>