<svg xmlns="http://www.w3.org/2000/svg" width="19" height="18" viewBox="0 0 19 18">
    <path fill="#C8CCD1" fill-rule="nonzero" d="M9.191 0C4.136 0 0 4.136 0 9.191c0 3.907 2.45 7.238 5.86 8.579.344-.077.65-.383.65-.766v-1.685h-.996c-.727 0-1.34-.344-1.645-.881-.078-.153-.154-.344-.23-.536-.153-.421-.345-.88-.728-1.149a.561.561 0 0 1-.191-.537c.076-.191.268-.344.612-.305.383.038.957.46 1.303.919.305.383.535.613.994.613h.116c.344 0 1.188 0 1.34-.154.115-.153.192-.268.307-.383-2.298-.46-3.601-1.8-3.601-3.83 0-.69.191-1.378.613-1.99-.152-.575-.498-2.068.23-2.72l.114-.114h.154c.995 0 1.724.42 2.183.766a6.124 6.124 0 0 1 4.213 0 3.401 3.401 0 0 1 2.183-.766h.154l.113.113c.729.69.383 2.146.23 2.72.384.613.614 1.302.614 1.991 0 2.03-1.303 3.37-3.562 3.83.575.613.881 1.532.881 2.26v1.877c0 .383.268.69.651.766 3.37-1.38 5.821-4.711 5.821-8.618C18.383 4.136 14.247 0 9.191 0z"/>
</svg>
