<?xml version="1.0" encoding="UTF-8" standalone="no"?><!DOCTYPE svg PUBLIC "-//W3C//DTD SVG 1.1//EN" "http://www.w3.org/Graphics/SVG/1.1/DTD/svg11.dtd"><svg width="100%" height="100%" viewBox="0 0 18 15" version="1.1" xmlns="http://www.w3.org/2000/svg" xmlns:xlink="http://www.w3.org/1999/xlink" xml:space="preserve" style="fill-rule:evenodd;clip-rule:evenodd;stroke-linejoin:round;stroke-miterlimit:1.41421;"><path d="M18,1.918c-0.674,0.299 -1.389,0.494 -2.121,0.581c0.771,-0.461 1.349,-1.188 1.624,-2.043c-0.725,0.43 -1.518,0.733 -2.345,0.896c-0.698,-0.748 -1.677,-1.173 -2.7,-1.173c-2.026,0 -3.693,1.667 -3.693,3.693c0,0.285 0.033,0.57 0.099,0.848c-2.968,-0.148 -5.738,-1.551 -7.613,-3.857c-0.317,0.545 -0.499,1.18 -0.499,1.857c0,1.28 0.652,2.411 1.643,3.073c-0.586,-0.019 -1.16,-0.178 -1.672,-0.463l0,0.047c0,1.751 1.246,3.273 2.963,3.62c-0.544,0.149 -1.114,0.171 -1.668,0.065c0.483,1.501 1.874,2.535 3.45,2.565c-1.547,1.215 -3.515,1.765 -5.468,1.528c1.688,1.085 3.654,1.661 5.661,1.659c6.793,0 10.507,-5.627 10.507,-10.508c0,-0.16 -0.004,-0.32 -0.01,-0.478c0.722,-0.522 1.346,-1.169 1.842,-1.91l0,0Z" style="fill:#fff;fill-rule:nonzero;"/></svg>