<svg xmlns="http://www.w3.org/2000/svg" width="18" height="15" viewBox="0 0 18 15">
    <path fill="#C8CCD1" fill-rule="nonzero" d="M18 1.776a7.231 7.231 0 0 1-2.121.596A3.78 3.78 0 0 0 17.503.277a7.288 7.288 0 0 1-2.346.919A3.646 3.646 0 0 0 12.462 0c-2.04 0-3.693 1.696-3.693 3.787 0 .297.033.586.095.863-3.069-.158-5.79-1.666-7.612-3.957-.317.559-.499 1.21-.499 1.904a3.81 3.81 0 0 0 1.642 3.152 3.611 3.611 0 0 1-1.672-.474v.047c0 1.835 1.273 3.366 2.962 3.713a3.598 3.598 0 0 1-1.668.066c.47 1.504 1.834 2.6 3.45 2.63A7.292 7.292 0 0 1 0 13.299 10.266 10.266 0 0 0 5.661 15c6.793 0 10.507-5.77 10.507-10.774 0-.164-.004-.328-.01-.49A7.627 7.627 0 0 0 18 1.776z"/>
</svg>
