<?xml version="1.0" encoding="UTF-8" standalone="no"?><!DOCTYPE svg PUBLIC "-//W3C//DTD SVG 1.1//EN" "http://www.w3.org/Graphics/SVG/1.1/DTD/svg11.dtd"><svg width="100%" height="100%" viewBox="0 0 118 15" version="1.1" xmlns="http://www.w3.org/2000/svg" xmlns:xlink="http://www.w3.org/1999/xlink" xml:space="preserve" style="fill-rule:evenodd;clip-rule:evenodd;stroke-linejoin:round;stroke-miterlimit:1.41421;"><g><path d="M7.237,5.181c0,1.26 -1.849,1.26 -1.849,1.26l-1.881,0l0,-2.619l1.881,0c0,0 1.849,-0.015 1.849,1.359l0,0Zm2.398,-0.128c0,-3.364 -4.247,-3.278 -4.247,-3.278l-4.091,0c-0.094,0 -0.172,0.071 -0.172,0.129l0,6.67l4.263,0c0,0 2.021,-0.086 2.021,1.259c0,1.102 -1.238,1.303 -2.021,1.303l-1.865,0l0,2.089l1.865,0c0.846,0 4.419,-0.143 4.419,-3.335c0,0 0.078,-1.774 -1.912,-2.39c0.956,-0.358 1.74,-1.116 1.74,-2.447l0,0Z" style="fill:#fff;fill-rule:nonzero;"/><path d="M21.717,11.093l-4.372,0l-2.398,0l0,2.003c0,0.058 0.079,0.129 0.173,0.129l6.597,0c0.11,0 0.173,-0.071 0.173,-0.129l0,-1.86c0,-0.072 -0.063,-0.143 -0.173,-0.143Zm-4.372,-2.19l0,-6.999c0,-0.058 -0.063,-0.129 -0.157,-0.129l-2.068,0c-0.094,0 -0.173,0.071 -0.173,0.129l0,6.999l2.398,0Z" style="fill:#fff;fill-rule:nonzero;"/><path d="M36.198,1.775l-2.037,0c-0.11,0 -0.173,0.071 -0.173,0.129l0,7.5c0,1.159 -1.16,1.717 -2.335,1.717c-1.16,0 -2.194,-0.601 -2.335,-1.732l0,-5.539l-2.366,0l0,5.554c0,2.361 2.115,3.821 4.701,3.821c2.664,0 4.702,-1.402 4.702,-3.821l0,-7.5c0,-0.058 -0.079,-0.129 -0.157,-0.129l0,0Z" style="fill:#fff;fill-rule:nonzero;"/><path d="M47.481,11.093l-3.557,0l0,-2.577l4.921,0c0.094,0 0.172,-0.071 0.172,-0.128l0,-1.818c0,-0.072 -0.078,-0.129 -0.172,-0.129l-4.921,0l0,-2.591l3.557,0l0,-2.075l-5.782,0c-0.094,0 -0.173,0.071 -0.173,0.129l0,11.192c0,0.058 0.079,0.129 0.173,0.129l5.782,0l0,-2.132l0,0Z" style="fill:#fff;fill-rule:nonzero;"/><path d="M59.846,6.87c-0.893,-0.386 -1.771,-0.386 -1.849,-0.386c-0.799,0 -1.567,-0.43 -1.567,-1.26c0,-0.916 0.705,-1.388 1.567,-1.388c0.815,0 1.504,0.386 1.536,1.202c0,0.043 0.078,0.115 0.172,0.115l1.959,0c0.11,0 0.188,-0.072 0.173,-0.115c-0.032,-1.946 -1.693,-3.263 -3.84,-3.263c-2.006,0 -3.902,1.302 -3.902,3.449c0,1.331 0.736,2.348 2.037,2.892c0.909,0.386 1.755,0.386 1.865,0.386c0.705,0.029 1.567,0.544 1.567,1.388c0,0.759 -0.736,1.274 -1.567,1.274l-0.016,0l0,2.061l0.016,0c2.006,0 3.887,-1.188 3.887,-3.335c0,-1.345 -0.721,-2.461 -2.038,-3.02l0,0Z" style="fill:#fff;fill-rule:nonzero;"/><path d="M69.563,5.926l0,7.17c0,0.058 0.062,0.129 0.172,0.129l2.022,0c0.109,0 0.188,-0.071 0.188,-0.129l0,-7.17l-2.382,0Zm-2.414,-2.19l7.193,0c0.11,0 0.173,-0.057 0.173,-0.129l0,-1.703c0,-0.058 -0.063,-0.129 -0.173,-0.129l-7.193,0c-0.094,0 -0.172,0.071 -0.172,0.129l0,1.703c0,0.072 0.078,0.129 0.172,0.129Z" style="fill:#fff;fill-rule:nonzero;"/><path d="M89.434,13.054l-4.764,-11.193c-0.047,-0.115 -0.266,-0.115 -0.313,0l-4.749,11.193c-0.047,0.085 0.016,0.171 0.157,0.171l2.147,0c0.063,0 0.141,-0.028 0.157,-0.086l2.444,-6.383l2.476,6.383c0.016,0.058 0.094,0.086 0.141,0.086l2.163,0c0.11,0 0.188,-0.086 0.141,-0.171l0,0Z" style="fill:#fff;fill-rule:nonzero;"/><path d="M104.197,3.879l0,-1.975c0,-0.058 -0.063,-0.129 -0.173,-0.129l-2.037,0c-3.119,0 -7.35,0.83 -7.35,5.725c0,5.081 4.278,5.725 7.35,5.725l2.037,0c0.11,0 0.173,-0.071 0.173,-0.129l0,-4.494l0,-0.329l0,-2.19l-2.398,0l-2.413,0l0,2.19l2.413,0l0,2.863c-2.727,0.128 -4.748,-0.916 -4.748,-3.636c0,-3.535 3.228,-3.678 4.748,-3.621l2.398,0Z" style="fill:#fff;fill-rule:nonzero;"/><path d="M115.339,11.093l-3.557,0l0,-2.577l4.921,0c0.094,0 0.172,-0.071 0.172,-0.128l0,-1.818c0,-0.072 -0.078,-0.129 -0.172,-0.129l-4.921,0l0,-2.591l3.557,0l0,-2.075l-5.783,0c-0.094,0 -0.172,0.071 -0.172,0.129l0,11.192c0,0.058 0.078,0.129 0.172,0.129l5.783,0l0,-2.132Z" style="fill:#fff;fill-rule:nonzero;"/></g></svg>