<?xml version="1.0" encoding="UTF-8" standalone="no"?><!DOCTYPE svg PUBLIC "-//W3C//DTD SVG 1.1//EN" "http://www.w3.org/Graphics/SVG/1.1/DTD/svg11.dtd"><svg width="100%" height="100%" viewBox="0 0 16 16" version="1.1" xmlns="http://www.w3.org/2000/svg" xmlns:xlink="http://www.w3.org/1999/xlink" xml:space="preserve" style="fill-rule:evenodd;clip-rule:evenodd;stroke-linejoin:round;stroke-miterlimit:1.41421;"><path d="M7.592,9.844c-0.106,0.105 -0.166,0.247 -0.166,0.396c0,0.149 0.06,0.292 0.166,0.396c0.221,0.218 0.581,0.218 0.802,0l2.155,-2.042c0.16,-0.159 0.248,-0.369 0.248,-0.594c0.001,-0.223 -0.089,-0.437 -0.248,-0.593l-2.155,-2.043c-0.221,-0.218 -0.581,-0.218 -0.802,0c-0.106,0.104 -0.166,0.247 -0.166,0.396c0,0.149 0.06,0.291 0.166,0.396l1.387,1.284l-3.217,0c-0.307,0 -0.559,0.253 -0.559,0.56c0,0.307 0.252,0.56 0.559,0.56l3.218,0l-1.388,1.285l0,-0.001Z" style="fill:#fff;fill-rule:nonzero;"/></svg>